{"title":"Errors of the Human Body (2012) WEBRip","uid":8404229,"size":929128461,"categoryP":"video","categoryS":"movies","magnet":"?xt=urn:btih:27270ccb1f4964601e8e5c2e4f34481d47806c0f&amp;dn=Errors+of+the+Human+Body+%282012%29+WEBRip&amp;tr=udp%3A%2F%2Ftracker.openbittorrent.com%3A80&amp;tr=udp%3A%2F%2Fopen.demonii.com%3A1337&amp;tr=udp%3A%2F%2Ftracker.coppersurfer.tk%3A6969&amp;tr=udp%3A%2F%2Fexodus.desync.com%3A6969","seeders":1,"leechers":0,"uploader":"RadioResearch","files":3,"time":1366764209,"description":"*******************************************************************************\n                    Errors of the Human Body (2012) WEBRip\n*******************************************************************************\n\n-------------------------------------------------------------------------------\n                              General Information\n-------------------------------------------------------------------------------\nType.................: Movie\n\n\n\nVideo Format.........: AVI\nVideo Bitrate........: 1214\nResolution...........: 640 x 360\nColor................: 8 bit\nFPS..................: 24.000\nSource...............: WEB 16:9\nOriginal Format......: NTSC\nGenre................: Science Fiction \nIMDb Rating..........: 5.1\nMovie Information....: http://www.imdb.com/title/tt1835955/\n\n-------------------------------------------------------------------------------\n                               Post Information\n-------------------------------------------------------------------------------\nPosted by............: RadioResearch\nPosted on............: 4/23/2013\n\n-------------------------------------------------------------------------------\n                                 Release Notes\n-------------------------------------------------------------------------------\nSEEDBOX SUPPORTED!!\n\nSeeking a new laboratory to pursue his controversial genetic research, Dr Geoff \nBurton takes up a position at the world-renowned Institute for Molecular Cell \nBiology &amp; Genetics in wintry Dresden, Germany. His contribution to their most \ntop-secret project - a human regeneration gene - has the potential to make \nsomething miraculous out of a personal tragedy that has haunted him for years. \nBut when he uncovers a conspiracy amongst his colleagues, he finds instead \nsomething quite different: a terrifying new virus, with potentially devastating \nconsequences for humanity - and for Geoff, who is not only its first victim, but \nits unwitting source.\n\nEnjoy!\nRadioResearch\n\nGeneral\nComplete name                            : G:Errors of the Human Body (2012) \nWEBRipErrors of the Human Body.avi\nFormat                                   : AVI\nFormat/Info                              : Audio Video Interleave\nFile size                                : 886 MiB\nDuration                                 : 1h 42mn\nOverall bit rate                         : 1 214 Kbps\n\nVideo\nID                                       : 0\nFormat                                   : mp43\nCodec ID                                 : mp43\nDuration                                 : 1h 42mn\nBit rate                                 : 1 074 Kbps\nWidth                                    : 640 pixels\nHeight                                   : 360 pixels\nDisplay aspect ratio                     : 16:9\nFrame rate                               : 24.000 fps\nBits/(Pixel*Frame)                       : 0.194\nStream size                              : 784 MiB (88%)\n\nAudio\nID                                       : 1\nFormat                                   : MPEG Audio\nFormat version                           : Version 1\nFormat profile                           : Layer 3\nMode                                     : Joint stereo\nMode extension                           : MS Stereo\nCodec ID                                 : 55\nCodec ID/Hint                            : MP3\nDuration                                 : 1h 42mn\nBit rate mode                            : Constant\nBit rate                                 : 128 Kbps\nChannel(s)                               : 2 channels\nSampling rate                            : 44.1 KHz\nCompression mode                         : Lossy\nStream size                              : 93.4 MiB (11%)\nAlignment                                : Aligned on interleaves\nInterleave, duration                     : 26 ms (0.63 video frame)\nWriting library                          : LAME3.98.2\n\n\n\n\n-------------------------------------------------------------------------------\nGenerated with Cool NFO Creator - http://fly.to/coolbeans\n-------------------------------------------------------------------------------\n","torrent":{"xt":"urn:btih:27270ccb1f4964601e8e5c2e4f34481d47806c0f","amp;dn":"Errors+of+the+Human+Body+%282012%29+WEBRip","amp;tr":["udp%3A%2F%2Ftracker.openbittorrent.com%3A80","udp%3A%2F%2Fopen.demonii.com%3A1337","udp%3A%2F%2Ftracker.coppersurfer.tk%3A6969","udp%3A%2F%2Fexodus.desync.com%3A6969"],"infoHash":"27270ccb1f4964601e8e5c2e4f34481d47806c0f","infoHashBuffer":{"type":"Buffer","data":[39,39,12,203,31,73,100,96,30,142,92,46,79,52,72,29,71,128,108,15]},"announce":[],"urlList":[]}}